<?xml version="1.0" encoding="utf-8"?>
<!-- Generator: Adobe Illustrator 25.2.3, SVG Export Plug-In . SVG Version: 6.00 Build 0)  -->
<svg version="1.1" id="Layer_1" xmlns="http://www.w3.org/2000/svg" xmlns:xlink="http://www.w3.org/1999/xlink" x="0px" y="0px"
	 viewBox="0 0 276.3 588.2" style="enable-background:new 0 0 276.3 588.2;" xml:space="preserve">
<style type="text/css">
	.st0{opacity:0.88;}
	.st1{fill:#9E1924;}
</style>
<g class="st0">
	<g>
		<path class="st1" d="M193.2,32.5c-20.3-2.7-40.8-2.7-61.2-0.7c-20.3,2-40.3,5.7-60.3,9.3c-2.5,0.5-5,0.9-7.5,1.3
			c-2.1,0.4-4.4,0.5-6.4,1.5c-1.7,0.8-3.2,2.5-2.1,4.4c1.1,1.9,3.8,3,5.7,3.8c3,1.2,5.9,1.5,9.1,1.8c16.3,1.4,32.6,2.3,48.9,2.3
			c18.8,0,37.5-2.2,56.3-3.2c6.4-0.3,13-0.7,19.3-2.1c3.4-0.8,9.6-2.4,9.8-6.8c0.1-3.1-3.2-3-5.5-3.5c-3.3-0.7-6.6-1.3-9.9-1.9
			c-7.7-1.3-15.5-2.4-23.3-3.3c-16.5-1.9-33.2-3.1-49.8-3.4c-14.4-0.2-29.6-0.2-43.7,3.2c-5.9,1.4-12.2,3.9-15.9,9
			c-3.7,5.2-3.2,11.3-3.6,17.3c-1.4,17.7-4.2,35.4-6.7,53c-2.2,15.4-4.5,30.8-5.8,46.3c-0.7,8.9-0.6,17.7-0.3,26.6
			c1.2,29.9,7.8,61.3,27,85.2c4.7,5.8,10.3,10.6,15.9,15.5c6.4,5.5,13,11,20.2,15.5c15.1,9.4,33.4,10.3,50.3,5.3
			c8.9-2.7,17.3-6.8,25.1-11.8c7.8-5,14.4-11.9,20.3-19c11.1-13.3,21.3-28.5,26.1-45.3c2.3-7.9,3.1-16.2,1.3-24.3
			c-0.4-1.9-3.7-0.9-4.3,0.3c-6.6,14.4-16.5,27.2-29.3,36.5c-12.7,9.3-27.9,14.7-43.6,16.1c-15.1,1.3-30.7-0.7-44.9-5.8
			c-5.4-1.9-10.7-4-16.2-5.7c-5.2-1.7-10.6-3.4-16.1-3.7c-3.4-0.2-8.2,0.2-9.7,4c-1.6,4.1,2.1,8.6,4.6,11.5c8.1,9,18.3,16.2,28.3,23
			c14.9,10.1,29.2,22.3,37.1,38.8c3.7,7.9,5.1,16.5,6.2,25c1.1,9.4,1.7,18.9,2.1,28.4c1.3,27.7,3.7,55.6-1.1,83.1
			c-4.4,25.2-15.4,51.1-38.9,63.9c-6.3,3.4-13,5.7-20,7.2c-7.2,1.5-14.9,3.2-22.2,3.2c-1.4,0-3.9,0-4.7-1.5c-0.8-1.4,0.3-3,1.2-4.1
			c2.3-2.8,5.7-5.1,8.7-7.1c6.3-4.2,13.4-6.6,20.8-8c9.7-1.8,19.7-2.6,29.6-3.6c8.4-0.9,16.8-1.4,25.2-1.1
			c9.6,0.3,19.2,1.4,28.7,2.4c9.4,1,18.8,2.5,27.8,5.6c7.3,2.5,14.1,6.1,20.5,10.5c2.7,1.8,5.4,3.7,7.9,5.8c2.1,1.7,3.7,3.6,3.6,6.5
			c-0.2,6.5-9,10.2-13.9,12.5c-8,3.6-16.3,6.5-24.7,9c-17.7,5.3-36.2,8-54.7,7.2c-18.8-0.8-37.2-4.7-55.3-9.6
			c-10.3-2.8-20.5-6-30.7-9.3c-1.9-0.6-5.1,2.1-2.5,3c37.8,12.2,77.1,23.4,117.2,17.7c18.4-2.6,37-8,53.8-15.9
			c5.6-2.6,13.1-6.5,14.8-13c1.7-6.3-3.5-10.1-8-13.4c-5.9-4.3-12-8.2-18.6-11.1c-8.7-3.9-18.1-6.1-27.5-7.5
			c-10.1-1.5-20.3-2.3-30.5-3.1c-8.7-0.7-17.5-0.6-26.2,0.1c-9.9,0.8-19.8,2-29.6,3.2c-8.4,1-16.8,2.8-24.4,6.6
			c-3.3,1.6-6.4,3.6-9.3,5.8c-2.8,2.1-6.1,4.4-7.8,7.6c-1.4,2.6-1,5.5,1.7,7c3.1,1.7,7.3,1.2,10.7,0.9c15-1.7,30.3-4.6,43.3-12.5
			c11.3-6.9,20.2-17,26.4-28.7c12.8-23.9,15.3-52.5,14.7-79.1c-0.3-16.3-1.3-32.6-2.2-48.9c-1.1-18.4-2-37.6-12.2-53.5
			c-5.4-8.5-12.4-15.8-20-22.3c-5.4-4.5-11.2-8.3-16.9-12.3C90.4,276,85,272,79.9,267.7c-4.4-3.7-10-8-12.4-13.4
			c-0.6-1.3-1.3-3.4-0.2-4.5c0.5-0.5,2.7-0.5,3.9-0.4c5.8,0.4,11.5,2.4,17,4.2c5.4,1.8,10.7,3.9,16.1,5.8c7.3,2.5,15,4,22.6,4.9
			c33,3.9,66.4-7.9,87.2-34.3c5-6.3,9.1-13.3,12.5-20.6c-1.4,0.1-2.8,0.2-4.3,0.3c2.4,10.8-0.2,21.9-4.4,31.9
			c-4.3,10.4-10.4,20-17.2,28.9c-7,9.2-14.8,18.3-24.6,24.6c-10,6.5-21.4,11.4-33.3,13.1c-11.3,1.6-23.2,0.2-33.3-5.5
			c-9-5.1-17-12-24.8-18.8c-7.3-6.3-13.7-12.8-18.9-21c-5.5-8.5-9.6-17.9-12.8-27.5c-9.3-28.1-10-58.5-6.6-87.7
			c2.7-22.8,6.4-45.5,9.3-68.3c1.1-8.8,1.7-17.6,2.3-26.4C58.7,44,66.1,40,74.2,38.1c8.5-2,17.4-2.4,26.1-2.7
			c10.1-0.3,20.1-0.1,30.2,0.3c20,1,39.9,3,59.6,6.6c3.9,0.7,7.8,1.5,11.7,2.4c-0.5-0.3-1-0.7-1.4-1c1.5,4.7-12.9,5.3-15.3,5.5
			c-7,0.6-14,0.7-21,1.2c-10.9,0.7-21.8,1.9-32.8,2.3c-18.7,0.7-37.5-0.4-56.2-1.9c-4.3-0.3-8.4-0.4-12.3-2.3
			c-0.9-0.4-2.6-1.2-3-2.2c0-0.1-0.1,0.2-0.2,0.2c0.1-0.2,1.1-0.3,1.2-0.4c1.6-0.4,3.2-0.6,4.7-0.8c13.2-2.3,26.3-4.8,39.6-6.9
			c28.7-4.5,57.7-6.7,86.6-2.8C193.9,36,196.2,32.9,193.2,32.5L193.2,32.5z"/>
	</g>
</g>
<g>
</g>
<g>
</g>
<g>
</g>
<g>
</g>
<g>
</g>
<g>
</g>
</svg>
